<svg xmlns="http://www.w3.org/2000/svg" width="72" height="68" viewBox="0 0 72 68">
  <defs>
    <style>
      .cls-1 {
        fill: #f7a500;
        fill-rule: evenodd;
      }
    </style>
  </defs>
  <path id="Shape_1_copy" data-name="Shape 1 copy" class="cls-1" d="M1279.69,314.5a20.4,20.4,0,0,0-15.69,7.346,20.349,20.349,0,0,0-36,12.753c0,8.677,5.23,18.715,15.54,29.833a149.861,149.861,0,0,0,19.03,17.008L1264,382.5l1.42-1.059a148.918,148.918,0,0,0,19.04-17.008c10.31-11.118,15.54-21.156,15.54-29.833A20.227,20.227,0,0,0,1279.69,314.5Zm1.27,46.756A144.436,144.436,0,0,1,1264,376.6a143.721,143.721,0,0,1-16.96-15.349c-9.35-10.081-14.29-19.3-14.29-26.657a15.585,15.585,0,0,1,29.17-7.453l2.08,3.705,2.08-3.705a15.585,15.585,0,0,1,29.17,7.453C1295.25,341.957,1290.31,351.175,1280.96,361.255Z" transform="translate(-1228 -314.5)"/>
</svg>
